<svg width="166" height="30" viewBox="0 0 166 30" fill="none" xmlns="http://www.w3.org/2000/svg">
<path d="M94.2065 10.3438C94.2065 6.93917 94.2901 3.76936 94.5412 0.834351L81.7394 2.53666V3.35846L82.9945 3.47586C83.9148 3.53456 84.5005 3.76936 84.8352 4.12156C85.1699 4.53246 85.4209 5.11947 85.5883 5.99997C85.7556 7.70228 85.923 11.5765 85.8393 17.6813C85.8393 23.7274 85.7556 27.5429 85.5883 29.0105C90.1902 29.7149 93.7881 30.0084 96.4656 30.0084C101.486 30.0084 105.419 29.0105 108.263 26.9559C111.108 24.9601 112.614 22.1425 112.614 18.6792C112.614 15.9203 111.527 13.631 109.351 11.8113C107.176 9.99158 104.414 9.11108 101.151 9.11108C98.9758 9.11108 96.7166 9.52198 94.2065 10.3438ZM94.4575 28.4234C94.2902 26.545 94.1228 20.9098 94.1228 11.6939C94.8759 11.5178 95.8799 11.4004 97.135 11.4004C99.1431 11.4004 100.733 12.1048 101.904 13.5723C103.076 15.0398 103.661 16.8008 103.661 19.0314C103.661 21.7903 102.992 24.0209 101.653 25.8993C100.315 27.719 98.6411 28.6583 96.5493 28.6583C95.8799 28.5408 95.2105 28.4821 94.4575 28.4234ZM33.7117 1.42135H0.242966V2.59536L2.00007 2.71276C3.33882 2.88886 4.25922 3.24106 4.84492 3.76936C5.43062 4.35636 5.76531 5.29557 5.84898 6.58697C6.51836 12.9266 6.51836 18.8553 5.84898 24.3144C5.68164 25.6058 5.34695 26.545 4.84492 27.132C4.25922 27.719 3.33882 28.0712 2.00007 28.1886L0.242966 28.3647V29.5388H21.8303V28.3647L19.5712 28.2473C18.2324 28.1299 17.312 27.719 16.7263 27.1907C16.1406 26.6037 15.8059 25.6645 15.7223 24.3731C15.4712 22.0251 15.3039 19.3249 15.3039 16.3312L19.8222 16.3899C22.2487 16.4486 23.9221 17.74 24.7588 20.3228H26.4323V10.7547H24.7588C23.9221 13.2788 22.3323 14.5702 19.8222 14.6289L15.3039 14.6876C15.3039 9.40458 15.4712 5.64777 15.7223 3.35846H22.3323C27.018 3.35846 30.1975 5.47167 32.0383 9.69808L34.0464 9.28718L33.7117 1.42135ZM29.7791 19.501C29.7791 22.5534 31.0342 25.0775 33.4607 27.0733C35.8872 29.0692 39.4851 30.0084 44.0034 30.0084C48.5216 30.0084 52.2032 29.0105 54.8807 26.9559C57.5582 24.9601 58.8133 22.436 58.8133 19.3836C58.8133 16.3312 57.5582 13.8071 55.1317 11.8113C52.7052 9.81548 49.1073 8.87628 44.5891 8.87628C40.0708 8.87628 36.3892 9.87418 33.7117 11.9287C31.0342 13.9245 29.7791 16.4486 29.7791 19.501ZM48.438 12.8092C49.442 14.5115 49.8604 16.7421 49.8604 19.4423C49.8604 25.6645 48.0196 28.7169 44.4217 28.7169C42.5809 28.7169 41.1585 27.8364 40.1544 26.0754C39.1504 24.3144 38.732 22.0838 38.732 19.4423C38.732 13.2788 40.5728 10.2264 44.1707 10.2264C46.0115 10.1677 47.4339 11.0482 48.438 12.8092ZM119.141 27.0733C121.902 29.0105 125.416 30.0084 129.6 30.0084C132.194 30.0084 134.453 29.6562 136.461 28.8931C138.469 28.1886 140.059 27.3081 141.146 26.2515L140.31 25.5471C138.469 26.545 136.377 27.0146 133.951 27.0146C130.604 27.0146 128.01 26.2515 126.253 24.6666C124.412 23.0817 123.575 21.0859 123.743 18.5031H141.648C141.648 15.6855 140.644 13.3962 138.553 11.5765C136.461 9.81548 133.532 8.93498 129.767 8.93498C125.081 8.93498 121.484 9.99158 118.89 12.0461C116.296 14.1006 115.041 16.6247 115.041 19.6184C115.041 22.6708 116.38 25.1362 119.141 27.0733ZM125.332 12.3396C126.253 10.9308 127.424 10.2264 129.014 10.2264C131.524 10.2264 132.779 12.457 132.779 16.9769L123.91 17.0943C123.994 15.3333 124.412 13.7484 125.332 12.3396ZM164.156 9.99158C161.897 9.28718 159.052 8.87628 155.622 8.87628C152.107 8.87628 149.346 9.52198 147.254 10.7547C145.163 11.9874 144.075 13.5136 144.075 15.3333C144.075 16.9182 144.744 18.1509 145.999 19.0314C147.254 19.9119 149.263 20.675 151.856 21.3207C154.199 21.9077 155.873 22.4947 156.709 23.023C157.546 23.61 158.048 24.2557 158.048 25.1362C158.048 25.958 157.63 26.7211 156.709 27.3081C155.873 27.9538 154.701 28.2473 153.195 28.2473C149.514 28.2473 146.752 26.3689 144.828 22.6121L143.406 22.9056L143.74 28.7757C146.752 29.5975 150.099 30.0084 153.781 30.0084C157.63 30.0084 160.558 29.4214 162.734 28.1886C164.909 27.0146 165.997 25.3123 165.997 23.1991C165.997 21.7903 165.495 20.6163 164.407 19.7358C163.319 18.8553 161.562 18.0922 159.052 17.3878C156.291 16.6834 154.367 16.0377 153.362 15.4507C152.358 14.8637 151.856 14.1593 151.856 13.2788C151.856 12.3983 152.191 11.6939 152.944 11.1069C153.697 10.5199 154.618 10.2851 155.789 10.2851C159.136 10.2851 161.562 11.9874 163.068 15.3333L164.491 15.0398L164.156 9.99158ZM83.6638 9.46328C82.4924 9.05238 81.2373 8.87628 79.8149 8.87628C78.3925 8.87628 76.9701 9.28718 75.3803 10.109C73.7905 10.9308 72.6191 12.0461 71.6987 13.5723L71.7824 8.87628L59.0643 10.6373V11.4591L60.3194 11.5178C61.9091 11.6352 62.8295 12.5157 62.9969 14.1006C63.4989 17.74 63.4989 21.6142 62.9969 25.7232C62.8295 27.3081 61.9091 28.1299 60.3194 28.306L59.0643 28.4234V29.5388H76.8027V28.4234L74.5436 28.306C72.9538 28.1886 72.0334 27.3081 71.8661 25.7232C71.3641 22.3186 71.2804 18.6792 71.6987 14.9224C72.2008 14.3354 73.2885 13.9832 74.962 13.8658C76.6354 13.7484 78.5598 14.1006 80.568 14.9224L83.6638 9.46328Z" fill="white" fill-opacity="0.6"/>
</svg>
